<svg xmlns="http://www.w3.org/2000/svg" xmlns:xlink="http://www.w3.org/1999/xlink" viewBox="0 0 300 200"><defs><linearGradient id="linear-gradient" x1="-1493.78" y1="-318.25" x2="-1161.78" y2="-212.92" gradientTransform="translate(-1179.14 -166.01) rotate(180)" gradientUnits="userSpaceOnUse"><stop offset="0" stop-color="#e3e3e3"/><stop offset="1" stop-color="#f3f3f3"/></linearGradient><linearGradient id="linear-gradient-2" x1="-1286.28" y1="-301.97" x2="-1164.19" y2="-220.58" xlink:href="#linear-gradient"/><linearGradient id="linear-gradient-3" x1="-1451.4" y1="-193.24" x2="-1334.07" y2="-283.24" xlink:href="#linear-gradient"/><linearGradient id="linear-gradient-4" x1="-1332.13" y1="-418.24" x2="-1330.13" y2="-296.9" xlink:href="#linear-gradient"/><linearGradient id="linear-gradient-5" x1="-1464.57" y1="-168.22" x2="-1411.9" y2="-229.55" xlink:href="#linear-gradient"/><linearGradient id="linear-gradient-6" x1="238.01" y1="170.87" x2="299.9" y2="170.87" gradientTransform="matrix(1, 0, 0, 1, 0, 0)" xlink:href="#linear-gradient"/><linearGradient id="linear-gradient-7" x1="0" y1="86.46" x2="80.28" y2="86.46" gradientTransform="matrix(1, 0, 0, 1, 0, 0)" xlink:href="#linear-gradient"/></defs><title>grey-bg</title><g style="isolation:isolate"><g id="Layer_2" data-name="Layer 2"><g id="Layer_1-2" data-name="Layer 1"><rect width="300" height="200" style="fill:#a3a3a3;mix-blend-mode:saturation"/><rect width="300" height="200" style="fill:url(#linear-gradient)"/><path d="M123.7,69c33.6,13.9,44,31.3,36,51.7-8.5,21.7-38.2,19.8-51.3,13.3-17-8.3-27.3-19.3-44.8-10.5-15.8,8-17.3,26.3-6.8,44.8,5.5,9.8,6.7,26-2.6,31.7H0V0H106.4C86,17.5,85.5,53.2,123.7,69Z" style="fill:url(#linear-gradient-2)"/><path d="M300,124.2c-7-5-16.4-4.8-27.7,6.8-27.7,28.7-68.7,21.3-73.3-26.7s-63.3-40-67.3-69.3c-2.8-20.8,15.2-30.9,25.9-35H300Z" style="fill:url(#linear-gradient-3)"/><path d="M96.5,157c11.8-5.8,25.2-1,43,17.5,12.5,13,25.5,9,41,4,14-4.5,35.1,5.9,35.2,21.5H88.6c1.4-3.7,2.5-8.5,1.6-13C88.5,177.8,84.3,163,96.5,157Z" style="fill:url(#linear-gradient-4)"/><path d="M300,74.2C290.7,87.3,270.8,87,267,63c-4.7-29.3-30.7-19.3-49.3-31.3-13.4-8.6-10-23.8-6.9-31.7H300Z" style="fill:url(#linear-gradient-5)"/><path d="M242.3,171c12.7-10.7,32-.7,41.3-18.7,4.3-8.3,10.7-11.9,16.3-10.1V200h-55C240.2,192.2,233.5,178.4,242.3,171Z" style="fill:url(#linear-gradient-6)"/><path d="M71,57.7c18.4,25.9,6.7,38-11.3,45.3s-34,11-32.3,34.7C28.5,154.2,21,177,0,172.3V0H69.2C60,8.7,52.3,31.3,71,57.7Z" style="fill:url(#linear-gradient-7)"/></g></g></g></svg>